<?xml version="1.0" encoding="UTF-8"?>
<svg version="1.1" xmlns="http://www.w3.org/2000/svg" width="368" height="248">
<path d="M0 0 C121.44 0 242.88 0 368 0 C368 81.84 368 163.68 368 248 C246.56 248 125.12 248 0 248 C0 166.16 0 84.32 0 0 Z " fill="#FEFEFE" transform="translate(0,0)"/>
<path d="M0 0 C0 0.66 0 1.32 0 2 C0.58136719 2.26425781 1.16273438 2.52851562 1.76171875 2.80078125 C5.67767153 4.89885717 8.748893 8.00459805 12 11 C12.62648437 11.57234375 13.25296875 12.1446875 13.8984375 12.734375 C18.09608109 16.73038505 21.15739535 20.95666917 24 26 C25.46759766 25.566875 25.46759766 25.566875 26.96484375 25.125 C41.06975098 21.07571847 52.32427123 20.79539812 65.75 27.75 C75.46900482 33.45554527 82.47750159 40.25164639 86.03515625 51.1796875 C88.53683976 61.07006416 88.29372506 69.97363082 87 80 C88.03447266 80.49306641 88.03447266 80.49306641 89.08984375 80.99609375 C101.44184894 87.24834329 110.08295523 96.47311846 114.875 109.5625 C118.14710787 122.38996581 116.8258253 133.23987327 110.20703125 144.59375 C104.03966732 154.40631008 94.82176926 160.39692043 83.67185593 163.35212708 C75.33244334 164.82355725 66.78060567 164.43330059 58.33837891 164.41992188 C56.14425222 164.4272701 53.95012939 164.43585851 51.75601196 164.44558716 C45.81739174 164.46774167 39.87891056 164.47073656 33.94025469 164.46883965 C28.96604264 164.46871957 23.99185965 164.47729946 19.01765573 164.48561716 C6.5962652 164.50592957 -5.82506381 164.50700969 -18.24646218 164.49981004 C-28.31852937 164.49459304 -38.39038475 164.51090436 -48.46240234 164.54199219 C-60.19832155 164.57808695 -71.93408986 164.59683069 -83.67006743 164.59245348 C-89.86734162 164.59039736 -96.06437762 164.59568695 -102.26160812 164.62034607 C-108.10098176 164.6428139 -113.9398626 164.64057058 -119.77923965 164.62041855 C-121.905458 164.61704274 -124.03171081 164.62194669 -126.15788269 164.63640213 C-149.10267245 164.78145553 -172.2532266 161.23260824 -189.46484375 144.6640625 C-197.48129328 135.97447599 -200.58152385 126.59944521 -200.40649414 114.78149414 C-200.18825479 109.37213706 -199.27061265 104.88675332 -197 100 C-196.74476563 99.35160156 -196.48953125 98.70320313 -196.2265625 98.03515625 C-191.30511689 86.63455978 -181.28273807 78.5797318 -170.125 73.75 C-160.11615174 70.03154244 -149.47703945 68.6861662 -139 71 C-139.03480469 70.18917969 -139.06960937 69.37835938 -139.10546875 68.54296875 C-139.54367136 50.61839523 -132.39614812 33.71364839 -121 20 C-120.2884375 19.13761719 -119.576875 18.27523437 -118.84375 17.38671875 C-86.81457963 -19.77388561 -41.25230205 -22.08211462 0 0 Z " fill="#FCFDFD" transform="translate(226,52)"/>
<path d="M0 0 C0 0.66 0 1.32 0 2 C0.58136719 2.26425781 1.16273438 2.52851562 1.76171875 2.80078125 C5.67767153 4.89885717 8.748893 8.00459805 12 11 C12.62648437 11.57234375 13.25296875 12.1446875 13.8984375 12.734375 C18.09608109 16.73038505 21.15739535 20.95666917 24 26 C25.46759766 25.566875 25.46759766 25.566875 26.96484375 25.125 C41.06975098 21.07571847 52.32427123 20.79539812 65.75 27.75 C75.46900482 33.45554527 82.47750159 40.25164639 86.03515625 51.1796875 C88.53683976 61.07006416 88.29372506 69.97363082 87 80 C88.03447266 80.49306641 88.03447266 80.49306641 89.08984375 80.99609375 C101.44184894 87.24834329 110.08295523 96.47311846 114.875 109.5625 C118.14710787 122.38996581 116.8258253 133.23987327 110.20703125 144.59375 C104.03966732 154.40631008 94.82176926 160.39692043 83.67185593 163.35212708 C75.33244334 164.82355725 66.78060567 164.43330059 58.33837891 164.41992188 C56.14425222 164.4272701 53.95012939 164.43585851 51.75601196 164.44558716 C45.81739174 164.46774167 39.87891056 164.47073656 33.94025469 164.46883965 C28.96604264 164.46871957 23.99185965 164.47729946 19.01765573 164.48561716 C6.5962652 164.50592957 -5.82506381 164.50700969 -18.24646218 164.49981004 C-28.31852937 164.49459304 -38.39038475 164.51090436 -48.46240234 164.54199219 C-60.19832155 164.57808695 -71.93408986 164.59683069 -83.67006743 164.59245348 C-89.86734162 164.59039736 -96.06437762 164.59568695 -102.26160812 164.62034607 C-108.10098176 164.6428139 -113.9398626 164.64057058 -119.77923965 164.62041855 C-121.905458 164.61704274 -124.03171081 164.62194669 -126.15788269 164.63640213 C-149.10267245 164.78145553 -172.2532266 161.23260824 -189.46484375 144.6640625 C-197.48129328 135.97447599 -200.58152385 126.59944521 -200.40649414 114.78149414 C-200.18825479 109.37213706 -199.27061265 104.88675332 -197 100 C-196.74476563 99.35160156 -196.48953125 98.70320313 -196.2265625 98.03515625 C-191.30511689 86.63455978 -181.28273807 78.5797318 -170.125 73.75 C-160.11615174 70.03154244 -149.47703945 68.6861662 -139 71 C-139.03480469 70.18917969 -139.06960937 69.37835938 -139.10546875 68.54296875 C-139.54367136 50.61839523 -132.39614812 33.71364839 -121 20 C-120.2884375 19.13761719 -119.576875 18.27523437 -118.84375 17.38671875 C-86.81457963 -19.77388561 -41.25230205 -22.08211462 0 0 Z M-112.64257812 26.40136719 C-116.4619271 30.89940623 -119.34686414 35.74887429 -122 41 C-122.52722656 42.01191406 -123.05445312 43.02382812 -123.59765625 44.06640625 C-129.21994478 57.33124854 -127.42998969 72.86855423 -127 87 C-127.75490723 86.71995117 -128.50981445 86.43990234 -129.28759766 86.15136719 C-130.27808105 85.78688477 -131.26856445 85.42240234 -132.2890625 85.046875 C-133.27084473 84.68432617 -134.25262695 84.32177734 -135.26416016 83.94824219 C-146.92882631 79.90526848 -158.96462112 81.30287089 -169.9375 86.3515625 C-177.19914316 90.26025308 -183.87174028 96.29523943 -187.21875 103.93359375 C-189.37186924 112.38458678 -189.64819264 122.55406813 -186.0625 130.625 C-179.12122118 142.07514369 -167.30893254 147.50815944 -154.8697443 150.83791542 C-143.78724564 153.30929599 -133.0096573 153.42523435 -121.69116211 153.38818359 C-119.58361033 153.39225715 -117.47606068 153.3976034 -115.36851501 153.40411377 C-109.68677222 153.41769909 -104.00519428 153.41252546 -98.3234489 153.40297651 C-92.3536136 153.39533513 -86.38379159 153.4024378 -80.41395569 153.40713501 C-70.39337655 153.41257916 -60.37286394 153.40543579 -50.35229492 153.39111328 C-38.79548881 153.37478495 -27.23884148 153.38008211 -15.6820392 153.3965925 C-5.72744646 153.41024033 4.2270987 153.41211107 14.18169779 153.40427649 C20.11313791 153.39961865 26.04450357 153.39892295 31.9759388 153.40888596 C37.553428 153.41760162 43.13071395 153.41145018 48.70818138 153.39420319 C50.74542022 153.390263 52.78267639 153.39132963 54.81990814 153.39799118 C76.92245005 153.82603629 76.92245005 153.82603629 96 144 C103.0554597 136.22832733 104.57998594 129.28972229 104.30078125 119.01171875 C103.71566288 108.69389069 98.38186853 101.90154147 91 95 C86.17890026 90.9458934 80.65351564 90.21069783 74.57421875 89.39453125 C72 89 72 89 70 88 C70.63228516 86.87851563 70.63228516 86.87851563 71.27734375 85.734375 C71.82519531 84.74953125 72.37304688 83.7646875 72.9375 82.75 C73.48277344 81.77546875 74.02804687 80.8009375 74.58984375 79.796875 C78.30495405 72.42840139 77.96318649 63.59939816 75.8125 55.75 C73.14168173 48.06985899 69.7038309 42.54730417 62.6484375 38.2578125 C54.36114461 34.32195954 44.95801443 32.6784864 36 35 C31.84065171 36.74065184 27.93051568 38.79821038 24 41 C22.67067179 41.67461748 21.33898243 42.34475328 20 43 C19.52691406 41.96101563 19.05382812 40.92203125 18.56640625 39.8515625 C14.42495219 31.01596546 10.13512967 23.81773066 3 17 C2.09894531 16.06994141 2.09894531 16.06994141 1.1796875 15.12109375 C-14.50210896 -0.05155347 -36.31436967 -3.55145246 -57.21484375 -3.2734375 C-78.87227982 -2.56679849 -98.4914639 10.70457494 -112.64257812 26.40136719 Z " fill="#367277" transform="translate(226,52)"/>
<path d="M0 0 C0.556875 0.46277344 1.11375 0.92554687 1.6875 1.40234375 C1.6875 2.06234375 1.6875 2.72234375 1.6875 3.40234375 C2.56728516 3.7271875 2.56728516 3.7271875 3.46484375 4.05859375 C9.96936678 7.99102947 13.38844636 18.04760775 15.265625 25.1328125 C15.85618569 28.30981029 15.89757108 31.18125381 15.6875 34.40234375 C14.2025 34.89734375 14.2025 34.89734375 12.6875 35.40234375 C10.79425415 30.57456683 9.19393106 25.759762 7.75 20.77734375 C6.29068313 15.92230877 4.68741241 12.43670872 1.6875 8.40234375 C0.9375 6.02734375 0.9375 6.02734375 0.6875 4.40234375 C0.15125 4.31984375 -0.385 4.23734375 -0.9375 4.15234375 C-3.3125 3.40234375 -3.3125 3.40234375 -6.0625 1.46484375 C-12.90069197 -2.87477808 -20.39124347 -3.34133041 -28.3125 -2.59765625 C-37.62251499 -0.49678733 -43.14229968 3.43784442 -48.3125 11.40234375 C-52.16366851 18.14188865 -52.48202486 25.8108239 -53.3125 33.40234375 C-54.6325 33.40234375 -55.9525 33.40234375 -57.3125 33.40234375 C-57.80057813 21.54385278 -56.18207034 14.06055155 -49.3125 4.40234375 C-48.6525 3.74234375 -47.9925 3.08234375 -47.3125 2.40234375 C-46.3225 2.40234375 -45.3325 2.40234375 -44.3125 2.40234375 C-44.25707031 1.79777344 -44.20164063 1.19320312 -44.14453125 0.5703125 C-43.3125 -1.59765625 -43.3125 -1.59765625 -40.94921875 -3.046875 C-39.97597656 -3.45550781 -39.00273437 -3.86414063 -38 -4.28515625 C-36.55173828 -4.90970703 -36.55173828 -4.90970703 -35.07421875 -5.546875 C-22.07370135 -10.49332363 -11.06963291 -7.34859076 0 0 Z " fill="#427B7F" transform="translate(209.3125,102.59765625)"/>
<path d="M0 0 C0.99 0.33 1.98 0.66 3 1 C2.67 1.886875 2.34 2.77375 2 3.6875 C-0.44387254 12.39049934 0.75063904 20.90372765 3.31640625 29.38671875 C5.49880375 37.72971264 3.90432753 45.4165946 0 53 C-2.46976143 56.52082403 -5.13523932 59.79452749 -8 63 C-8.99 62.67 -9.98 62.34 -11 62 C-10.37658569 58.27683123 -8.70328007 55.89999517 -6.5 52.875 C-1.10278685 45.42065234 -1.47103949 38.97469669 -2 30 C-2.6017965 27.83773117 -3.37880032 26.01086788 -4.3203125 23.984375 C-6.82367246 16.6757149 -5.24946177 8.74888214 -2 2 C-1.34 1.34 -0.68 0.68 0 0 Z " fill="#487F83" transform="translate(165,115)"/>
<path d="M0 0 C0.33 0.99 0.66 1.98 1 3 C0.39671875 3.6290625 -0.2065625 4.258125 -0.828125 4.90625 C-9.66797782 14.37344722 -14.54461604 23.38817423 -14.265625 36.59375 C-13.6425592 42.23799311 -11.78870705 47.63387885 -10 53 C-9.87218214 55.67394964 -9.95608129 58.32095857 -10 61 C-11.9375 61.5625 -11.9375 61.5625 -14 62 C-15.58015169 60.41984831 -15.54099969 58.5442827 -15.9375 56.375 C-16.48502292 53.3843286 -17.13004486 50.58599952 -18.04296875 47.6796875 C-21.08828656 35.97075126 -19.51987127 24.07585069 -13.64453125 13.578125 C-5.14681208 0 -5.14681208 0 0 0 Z " fill="#40797E" transform="translate(162,95)"/>
<path d="M0 0 C1.89453125 0.6796875 1.89453125 0.6796875 4 2 C9.52165148 14.6635559 9.46121639 30.12931299 5 43 C-0.8034831 56.63219669 -0.8034831 56.63219669 -5 61 C-6.32 61 -7.64 61 -9 61 C-8.45498981 57.21776064 -7.50954049 55.00983476 -5.1875 52 C2.67964957 40.47415195 3.80193903 26.60707712 1.28125 13.16796875 C0.75078782 10.97981225 0.18189347 8.80026133 -0.44140625 6.63671875 C-1.00883711 3.95828635 -0.91272829 2.544759 0 0 Z " fill="#467E82" transform="translate(186,128)"/>
<path d="M0 0 C0.99 0 1.98 0 3 0 C3.81942948 2.51876293 4.63065069 5.0397067 5.4375 7.5625 C5.66759766 8.26697266 5.89769531 8.97144531 6.13476562 9.69726562 C11.22052117 25.69159827 11.72571636 47.42125079 4.3125 62.8125 C3.6628125 63.8953125 3.6628125 63.8953125 3 65 C2.01 65 1.02 65 0 65 C0.38453221 61.69302303 0.84565071 58.55828468 1.734375 55.34375 C5.93176435 39.97972106 6.329936 19.52898029 -1 5 C-0.625 2.25 -0.625 2.25 0 0 Z " fill="#427B7F" transform="translate(209,119)"/>
<path d="M0 0 C0.99 0 1.98 0 3 0 C2.96519531 0.81082031 2.93039063 1.62164062 2.89453125 2.45703125 C2.75709038 8.07901747 2.78711455 13.04955046 4.5 18.4375 C7.72419485 29.05111749 6.91940408 40.05680131 2 50 C-0.57719719 54.30572896 -3.43442709 58.45953676 -7 62 C-8.32 62 -9.64 62 -11 62 C-10.77381119 58.26788471 -9.62730434 56.36698285 -7.1875 53.6875 C-0.53819902 46.36687536 1.28154146 38.98177068 1.234375 29.2890625 C0.92666993 24.97093468 -0.17280935 21.05660792 -1.32421875 16.8984375 C-2.70562153 10.97357703 -3.0675225 5.37733028 0 0 Z " fill="#427B7F" transform="translate(171,121)"/>
<path d="M0 0 C1.9375 0.375 1.9375 0.375 4 1 C8.75992286 10.51984573 5.25914419 28.13038869 2.22265625 37.87109375 C0.54095485 42.17474493 -1.45164534 46.14613579 -4 50 C-4.99 50 -5.98 50 -7 50 C-6.45859995 44.99204952 -4.84284054 40.63667638 -3.03515625 35.9765625 C-0.1734462 27.74779624 0.25429995 20.68298868 0.125 12 C0.11597656 10.84371094 0.10695312 9.68742188 0.09765625 8.49609375 C0.07424922 5.66384353 0.04145995 2.83203381 0 0 Z " fill="#3E787D" transform="translate(205,138)"/>
<path d="M0 0 C0.53109375 0.52207031 1.0621875 1.04414062 1.609375 1.58203125 C1.609375 2.57203125 1.609375 3.56203125 1.609375 4.58203125 C-1.9464299 4.14662657 -5.25493839 3.62388003 -8.68359375 2.56640625 C-18.05982483 0.07661675 -27.32903473 0.7935638 -36.12109375 4.8046875 C-38.68813722 5.68393303 -39.87929469 5.49996578 -42.390625 4.58203125 C-41.390625 1.58203125 -41.390625 1.58203125 -39.89453125 0.484375 C-27.89915072 -5.4771119 -11.97747585 -7.10428715 0 0 Z " fill="#457D81" transform="translate(206.390625,90.41796875)"/>
<path d="M0 0 C7.72867017 3.99007267 10.61666112 10.00122532 13.3515625 17.9140625 C14.05078125 20.3046875 14.05078125 20.3046875 14.05078125 22.3046875 C12.40078125 22.3046875 10.75078125 22.3046875 9.05078125 22.3046875 C8.8084375 21.56863281 8.56609375 20.83257812 8.31640625 20.07421875 C5.43661265 11.15538128 5.43661265 11.15538128 -1.26171875 4.9921875 C-5.81280096 3.82795717 -9.45750741 3.47210443 -13.63671875 5.8046875 C-14.78140625 6.5471875 -14.78140625 6.5471875 -15.94921875 7.3046875 C-17.26921875 7.3046875 -18.58921875 7.3046875 -19.94921875 7.3046875 C-19.58035316 4.86607612 -19.35419216 3.63941042 -17.41796875 2.0390625 C-11.67222282 -0.83381046 -6.24383047 -2.22725816 0 0 Z " fill="#437B80" transform="translate(193.94921875,112.6953125)"/>
<path d="M0 0 C7.63726709 2.5457557 12.21197276 9.03825548 15.8125 16 C21.61821814 28.61174584 21.61821814 28.61174584 21 35 C20.01 35.495 20.01 35.495 19 36 C15.72131394 33.36382303 14.94390355 30.37077709 13.6875 26.4375 C10.52951825 17.08338618 6.34132 9.64214667 -1 3 C-0.67 2.01 -0.34 1.02 0 0 Z " fill="#4A8084" transform="translate(211,95)"/>
<path d="M0 0 C2.875 2.5625 2.875 2.5625 5 5 C5.66 5.66 6.32 6.32 7 7 C7 7.99 7 8.98 7 10 C4.26465145 9.59476318 2.97292825 8.97756912 0.8125 7.1875 C-3.81568885 3.58779756 -8.62116716 1.34601205 -14.4375 0.5 C-19.98949344 1.27922715 -25.96307286 2.96307286 -30 7 C-31.32 7 -32.64 7 -34 7 C-33.62595486 4.48855404 -33.33223398 3.29333829 -31.3984375 1.5859375 C-21.23629334 -4.49565456 -10.73027884 -5.85505193 0 0 Z " fill="#447C80" transform="translate(202,107)"/>
<path d="M0 0 C0.99 0 1.98 0 3 0 C8.8294556 11.15200201 8.77226377 25.42017522 5.046875 37.3828125 C4 39 4 39 1.890625 39.7421875 C1.26671875 39.82726562 0.6428125 39.91234375 0 40 C-1.14143894 36.57568317 -0.8841774 36.21690339 0.4375 33.0625 C3.35222558 24.8263947 2.36040627 16.56480201 0.4453125 8.203125 C-0.11278959 5.44198836 -0.14773949 2.80705026 0 0 Z " fill="#417A7E" transform="translate(178,133)"/>
<path d="M0 0 C0.66 0 1.32 0 2 0 C4.08303213 5.65955899 5.61293843 10.97122276 6 17 C6.05285156 17.66257813 6.10570312 18.32515625 6.16015625 19.0078125 C6.4657492 26.20917684 4.66421401 33.03605683 3 40 C1.02 40.495 1.02 40.495 -1 41 C-2 38 -2 38 -1.125 35.4375 C1.52196078 27.3495643 2.8902401 14.7804802 -1 7 C-1.125 3.9375 -1.125 3.9375 -1 1 C-0.67 0.67 -0.34 0.34 0 0 Z " fill="#467D82" transform="translate(197,132)"/>
<path d="M0 0 C1.8125 0.0625 1.8125 0.0625 4 1 C7.68137282 6.99927423 8.55522648 14.04759884 8 21 C6.53095538 25.06061504 4.70534574 28.62475912 2 32 C0.515 32.495 0.515 32.495 -1 33 C-1.66 32.67 -2.32 32.34 -3 32 C-2.01497775 29.34801703 -1.04959434 27.07239777 0.5546875 24.73046875 C2.3038719 21.42592849 2.36898325 19.21920504 2.3125 15.5 C2.30863281 14.3965625 2.30476562 13.293125 2.30078125 12.15625 C2.00288639 9.03028834 1.2006634 6.87011171 0 4 C0 2.68 0 1.36 0 0 Z " fill="#447C81" transform="translate(153,137)"/>
<path d="M0 0 C0.99 0 1.98 0 3 0 C2.66385861 3.58550812 1.52714919 5.88286135 -0.4375 8.8125 C-4.88978269 15.67697043 -5.37581147 22.9841052 -6 31 C-7.32 31 -8.64 31 -10 31 C-10.48807813 19.14150903 -8.86957034 11.6582078 -2 2 C-1.34 1.34 -0.68 0.68 0 0 Z " fill="#3D787C" transform="translate(162,105)"/>
<path d="M0 0 C1.98 0.495 1.98 0.495 4 1 C6.34143468 10.87148859 6.09092198 23.29748022 3 33 C2.01 33.66 1.02 34.32 0 35 C-0.33 34.67 -0.66 34.34 -1 34 C-0.90435711 32.05937483 -0.74490555 30.1218996 -0.5625 28.1875 C0.19531862 18.79249218 0.08528481 9.41923293 0 0 Z " fill="#417A7F" transform="translate(222,139)"/>
<path d="M0 0 C3.27412061 2.6335318 5.5235009 4.71150812 6 9 C4.68 9.33 3.36 9.66 2 10 C1.34 8.35 0.68 6.7 0 5 C-0.66 5 -1.32 5 -2 5 C-2 4.34 -2 3.68 -2 3 C-6.95696581 4.23924145 -9.11658466 5.78577758 -12 10 C-12.99 9.67 -13.98 9.34 -15 9 C-14.52153935 4.69385411 -13.34073619 2.75119451 -10 0 C-6.1544104 -1.2818632 -3.93271581 -0.94927623 0 0 Z " fill="#457C81" transform="translate(192,121)"/>
<path d="M0 0 C0.99 0.33 1.98 0.66 3 1 C3 1.99 3 2.98 3 4 C2.34 4 1.68 4 1 4 C0.731875 4.556875 0.46375 5.11375 0.1875 5.6875 C-0.204375 6.450625 -0.59625 7.21375 -1 8 C-1.45375 8.9075 -1.9075 9.815 -2.375 10.75 C-2.91125 11.4925 -3.4475 12.235 -4 13 C-5.32 13 -6.64 13 -8 13 C-7.42316338 9.10635283 -5.45178223 6.98810959 -3 4 C-2.67 3.01 -2.34 2.02 -2 1 C-1.34 0.67 -0.68 0.34 0 0 Z " fill="#3F797D" transform="translate(176,174)"/>
<path d="M0 0 C0.99 0 1.98 0 3 0 C2.53851564 4.92249987 0.19609831 9.27737682 -3 13 C-3.99 13 -4.98 13 -6 13 C-5.53851564 8.07750013 -3.19609831 3.72262318 0 0 Z " fill="#357176" transform="translate(194,175)"/>
</svg>
